<svg xmlns="http://www.w3.org/2000/svg" viewBox="0 0 64 64"><defs><style>.cls-1{isolation:isolate;}.cls-2{fill:#2f4f59;}.cls-3{fill:#d2dad8;}.cls-4{fill:#677575;}.cls-5{fill:#fa0f0c;}.cls-6{fill:none;stroke:#000;stroke-linecap:round;stroke-linejoin:round;stroke-width:2px;}.cls-7{opacity:0.25;mix-blend-mode:multiply;}.cls-8,.cls-9{mix-blend-mode:overlay;}.cls-9{fill:#fff;}</style></defs><title>Icon Color</title><g class="cls-1"><g id="Layer_1" data-name="Layer 1"><g id="Vector"><path class="cls-2" d="M9,40.3h9a0,0,0,0,1,0,0V57.06a3.54,3.54,0,0,1-3.54,3.54H12.53A3.54,3.54,0,0,1,9,57.06V40.3A0,0,0,0,1,9,40.3Z" transform="translate(39.61 5.25) rotate(45)"/><rect class="cls-3" x="23.88" y="32.66" width="5.81" height="8.96" transform="translate(-18.42 29.82) rotate(-45)"/><path class="cls-3" d="M48.67,16.25a2.13,2.13,0,0,1-1.05,2.15c-.71.33-1.67.1-2.19.69A2,2,0,0,0,45,20.18a1.67,1.67,0,0,1-.49,1c-.33.24-.88.17-1-.21-1.27,1.28-1.12,3.47-.14,5,.1.15.22.32.34.47l-5.42,5.44L32,25.58,47.32,10.27a8.92,8.92,0,0,0,.62,3.56A9,9,0,0,1,48.67,16.25Z"/><rect class="cls-4" x="15.65" y="38.3" width="13.98" height="5.77" rx="1.98" transform="translate(35.75 -3.95) rotate(45)"/><path class="cls-5" d="M55.55,14.7,43.76,26.49a5.36,5.36,0,0,1-.34-.49c-1-1.53-1.13-3.72.13-5,.09.37.66.45,1,.21a1.53,1.53,0,0,0,.49-1,2.17,2.17,0,0,1,.42-1.09c.52-.58,1.48-.36,2.19-.69a2.14,2.14,0,0,0,1.05-2.14,8.5,8.5,0,0,0-.73-2.43,8.94,8.94,0,0,1-.62-3.57l1.9-1.9,5-1.84,2.25-.84h0l2.75-1-.8,2.14-1,2.86Z"/><path class="cls-2" d="M49.58,40.3h1.89A3.54,3.54,0,0,1,55,43.83V60.59a0,0,0,0,1,0,0H46a0,0,0,0,1,0,0V43.83A3.54,3.54,0,0,1,49.58,40.3Z" transform="translate(121.93 50.38) rotate(135)"/><path class="cls-3" d="M42.44,36l-6.33,6.34L20.24,26.48c.13-.15.23-.32.34-.47,1-1.54,1.13-3.73-.13-5-.09.38-.66.45-1,.21a1.62,1.62,0,0,1-.49-1,2.22,2.22,0,0,0-.41-1.09c-.54-.59-1.49-.36-2.21-.69a2.16,2.16,0,0,1-1-2.15,9,9,0,0,1,.72-2.42,9.3,9.3,0,0,0,.64-3.56Z"/><path class="cls-4" d="M46.79,39.83l-.27.27-6.34,6.33L40,46.6a2.19,2.19,0,0,1-3.12,0l-1-1a2.22,2.22,0,0,1,0-3.11l.18-.17L42.44,36l.26-.26a2.22,2.22,0,0,1,3.13,0l1,1A2.23,2.23,0,0,1,46.79,39.83Z"/><path class="cls-5" d="M20.58,26c-.11.15-.21.32-.34.47L8.45,14.7l-1.85-5-1-2.85L4.76,4.68l2.75,1h0l2.25.83,5,1.85,1.91,1.91a9.3,9.3,0,0,1-.64,3.56,9,9,0,0,0-.72,2.42,2.16,2.16,0,0,0,1,2.15c.72.33,1.67.1,2.21.69A2.22,2.22,0,0,1,19,20.18a1.62,1.62,0,0,0,.49,1c.31.24.88.17,1-.21C21.71,22.28,21.56,24.47,20.58,26Z"/></g><g id="Line"><path class="cls-6" d="M9,40.3h9a0,0,0,0,1,0,0V57.06a3.54,3.54,0,0,1-3.54,3.54H12.53A3.54,3.54,0,0,1,9,57.06V40.3A0,0,0,0,1,9,40.3Z" transform="translate(39.61 5.25) rotate(45)"/><rect class="cls-6" x="23.88" y="32.66" width="5.81" height="8.96" transform="translate(-18.42 29.82) rotate(-45)"/><path class="cls-6" d="M48.67,16.25a2.13,2.13,0,0,1-1.05,2.15c-.71.33-1.67.1-2.19.69A2,2,0,0,0,45,20.18a1.67,1.67,0,0,1-.49,1c-.33.24-.88.17-1-.21-1.27,1.28-1.12,3.47-.14,5,.1.15.22.32.34.47l-5.42,5.44L32,25.58,47.32,10.27a8.92,8.92,0,0,0,.62,3.56A9,9,0,0,1,48.67,16.25Z"/><rect class="cls-6" x="15.65" y="38.3" width="13.98" height="5.77" rx="1.98" transform="translate(35.75 -3.95) rotate(45)"/><path class="cls-6" d="M55.55,14.7,43.76,26.49a5.36,5.36,0,0,1-.34-.49c-1-1.53-1.13-3.72.13-5,.09.37.66.45,1,.21a1.53,1.53,0,0,0,.49-1,2.17,2.17,0,0,1,.42-1.09c.52-.58,1.48-.36,2.19-.69a2.14,2.14,0,0,0,1.05-2.14,8.5,8.5,0,0,0-.73-2.43,8.94,8.94,0,0,1-.62-3.57l1.9-1.9,5-1.84,2.25-.84h0l2.75-1-.8,2.14-1,2.86Z"/><path class="cls-6" d="M49.58,40.3h1.89A3.54,3.54,0,0,1,55,43.83V60.59a0,0,0,0,1,0,0H46a0,0,0,0,1,0,0V43.83A3.54,3.54,0,0,1,49.58,40.3Z" transform="translate(121.93 50.38) rotate(135)"/><path class="cls-6" d="M42.44,36l-6.33,6.34L20.24,26.48c.13-.15.23-.32.34-.47,1-1.54,1.13-3.73-.13-5-.09.38-.66.45-1,.21a1.62,1.62,0,0,1-.49-1,2.22,2.22,0,0,0-.41-1.09c-.54-.59-1.49-.36-2.21-.69a2.16,2.16,0,0,1-1-2.15,9,9,0,0,1,.72-2.42,9.3,9.3,0,0,0,.64-3.56Z"/><path class="cls-6" d="M46.79,39.83l-.27.27-6.34,6.33L40,46.6a2.19,2.19,0,0,1-3.12,0l-1-1a2.22,2.22,0,0,1,0-3.11l.18-.17L42.44,36l.26-.26a2.22,2.22,0,0,1,3.13,0l1,1A2.23,2.23,0,0,1,46.79,39.83Z"/><path class="cls-6" d="M20.58,26c-.11.15-.21.32-.34.47L8.45,14.7l-1.85-5-1-2.85L4.76,4.68l2.75,1h0l2.25.83,5,1.85,1.91,1.91a9.3,9.3,0,0,1-.64,3.56,9,9,0,0,0-.72,2.42,2.16,2.16,0,0,0,1,2.15c.72.33,1.67.1,2.21.69A2.22,2.22,0,0,1,19,20.18a1.62,1.62,0,0,0,.49,1c.31.24.88.17,1-.21C21.71,22.28,21.56,24.47,20.58,26Z"/></g><g id="Shadow" class="cls-7"><path d="M52,58.29a3.54,3.54,0,0,0,5,0L58.37,57a3.54,3.54,0,0,0,0-5L46.52,40.1l-4.23,4.23L49.91,52a3.53,3.53,0,0,1,.35,4.56Z"/><path d="M27.64,42.36l-4.1-4.11-4.11,4.11-4.08,4.08L5.27,56.51a2.56,2.56,0,0,0,.36.44L7,58.29a3.54,3.54,0,0,0,5,0L23.81,46.44l.33.32a2,2,0,0,0,2.8,0l.83-.82a2.08,2.08,0,0,0,1-2.06A2.12,2.12,0,0,0,27.64,42.36Z"/><path d="M48.93,9.68l-1.85,5L35.29,26.49h0l-4.73,4.74L39,39.37,36,42.2h0l3.76-3.45,2.58,5.58,4.23-4.23.27-.27a2.23,2.23,0,0,0,0-3.12l-1-1a2.22,2.22,0,0,0-3.13,0l-.26.26-4.1-4.1,5.42-5.43h0L55.55,14.7l1.85-5,1-2.86.8-2.14-2.75,1h0l-2.25.84L49.44,8.28ZM43.56,21h0a.45.45,0,0,0,.32.31A.45.45,0,0,1,43.56,21Zm1,.21a.66.66,0,0,1-.47.12.71.71,0,0,0,.47-.12Zm1.4-2.44a9.1,9.1,0,0,1,1.2-.22A9.1,9.1,0,0,0,45.92,18.77Zm2.73-2a3.37,3.37,0,0,0,0-.55,5.52,5.52,0,0,0-.4-1.56,5.11,5.11,0,0,1,.4,1.57A3.25,3.25,0,0,1,48.65,16.8Z"/><path d="M6.09,8.28l.23.08,1.9,1.91,22.34,21,3.54-3.55L16.69,10.27,14.78,8.36l-5-1.85L7.51,5.68h0l-2.75-1,.79,2.15Z"/></g><g id="Highligth" class="cls-8"><g class="cls-8"><path class="cls-9" d="M57,58.29h0L45.19,46.44h0l-2.41-2.51-2.58,2.52L52,58.29A3.54,3.54,0,0,0,57,58.29Z"/><path class="cls-9" d="M56.48,5.68l-2.25.84-5,1.84-1.9,1.9h0L31.57,25.46l2.53,2.22L52.32,10.27h0l1.9-1.9,4.23-1.55.79-2.13Z"/><path class="cls-9" d="M26.37,33l-1-.79L21.56,36l-.42-.42a2,2,0,0,0-2.81,0l-1.27,1.27a2,2,0,0,0,0,2.81l.42.42L5.63,52a3.54,3.54,0,0,0,0,5L7,58.29a3.54,3.54,0,0,0,5,0h0L10.63,57a3.54,3.54,0,0,1,0-5L22.48,40.1,26.56,36l2.17-2.17A4.09,4.09,0,0,1,26.37,33Z"/></g></g></g></g></svg>